<svg id="blog-section-help.svg" xmlns="http://www.w3.org/2000/svg" width="24" height="19.344" viewBox="0 0 24 19.344">
  <defs>
    <style>
      .cls-1 {
        fill: #f27e18;
      }

      .cls-1, .cls-2 {
        fill-rule: evenodd;
      }

      .cls-2 {
        fill: #ff9948;
      }
    </style>
  </defs>
  <path class="cls-1" d="M388.143,61.888C388.9,61.128,392.848,59.848,397,64a3.136,3.136,0,0,1,1,2V80s-0.049.951-1,0c-0.663-.663-3.985-4.99-9-2,0,0-1,.971-1,0V64A3.418,3.418,0,0,1,388.143,61.888Z" transform="translate(-387 -61.063)"/>
  <path class="cls-2" d="M409.857,61.888C409.1,61.128,405.152,59.848,401,64a3.136,3.136,0,0,0-1,2V80s0.049,0.951,1,0c0.663-.663,3.985-4.99,9-2,0,0,1,.971,1,0V64A3.418,3.418,0,0,0,409.857,61.888Z" transform="translate(-387 -61.063)"/>
</svg>
