<svg xmlns="http://www.w3.org/2000/svg" viewBox="0 0 176.119 173.704"><g data-name="Layer 2"><g data-name="ART"><path d="M33.808 43.962l114.35 123.957a13.307 13.307 0 0019.328.248l3.371-3.471a13.308 13.308 0 00-.843-19.338L42.427 35.06a6.205 6.205 0 00-8.51.371 6.205 6.205 0 00-.109 8.53z" fill="#70b1de"/><path d="M157.946 173.704l-.196-.002a14.672 14.672 0 01-10.694-4.765L32.706 44.978v.001a7.705 7.705 0 0110.702-11.052l127.587 110.296a14.808 14.808 0 01.938 21.518l-3.37 3.47a14.671 14.671 0 01-10.617 4.493zM38.371 35.052a4.703 4.703 0 00-3.46 7.892v.001l114.35 123.958a11.698 11.698 0 008.527 3.8l.157.001a11.694 11.694 0 008.465-3.582l3.371-3.47a11.807 11.807 0 00-.749-17.16L41.445 36.196a4.689 4.689 0 00-3.074-1.144z" fill="#3e4147"/><path d="M42.32 49.662l108.296 113.925c3.28 3.501 8.455 3.958 11.328 1l1.82-1.875c2.879-2.964 2.262-8.137-1.35-11.31L46.975 44.854a3.619 3.619 0 00-4.967-.16 3.62 3.62 0 00.313 4.968z" fill="#85c3e9"/><path d="M18.362 12.331l26.895 8.684a6.205 6.205 0 005.69-.987l22.4-17.233a6.205 6.205 0 019.989 4.907l.052 28.262a6.205 6.205 0 002.697 5.107l23.312 15.979a6.205 6.205 0 01-1.58 11.015L80.954 76.85a6.205 6.205 0 00-4.023 4.142L68.937 108.1A6.205 6.205 0 0157.973 110L41.318 87.167a6.205 6.205 0 00-5.183-2.546l-28.252.775a6.205 6.205 0 01-5.197-9.84l16.57-22.896a6.205 6.205 0 00.82-5.716l-9.467-26.63a6.205 6.205 0 017.753-7.983z" fill="#e8a91b"/><path d="M62.963 114.052a7.648 7.648 0 01-6.202-3.167L40.106 88.05a4.716 4.716 0 00-3.93-1.931l-28.252.774a8.128 8.128 0 01-.22.003 7.704 7.704 0 01-6.232-12.22l16.57-22.897a4.701 4.701 0 00.62-4.333l-9.466-26.63a7.705 7.705 0 019.627-9.914l26.895 8.684a4.697 4.697 0 004.315-.748l22.4-17.233A7.705 7.705 0 0184.835 7.7l.053 28.262a4.704 4.704 0 002.043 3.872l23.312 15.98a7.705 7.705 0 01-1.96 13.678L81.42 78.274a4.705 4.705 0 00-3.051 3.142l-7.993 27.107a7.658 7.658 0 01-6.074 5.413 7.897 7.897 0 01-1.34.116zM36.305 83.119a7.709 7.709 0 016.225 3.163l16.654 22.835a4.705 4.705 0 008.315-1.442l7.993-27.108a7.703 7.703 0 014.996-5.144l26.863-8.783a4.705 4.705 0 001.197-8.353l-23.31-15.98a7.703 7.703 0 01-3.35-6.34l-.052-28.262a4.705 4.705 0 00-7.573-3.722l-22.4 17.234a7.713 7.713 0 01-7.067 1.225L17.9 13.76a4.704 4.704 0 00-5.879 6.052l9.467 26.631a7.7 7.7 0 01-1.017 7.098L3.902 76.435a4.704 4.704 0 003.94 7.461l28.252-.774q.105-.003.21-.003z" fill="#3e4147"/><path d="M25.137 21.086l21.016 6.786a4.848 4.848 0 004.446-.771l17.503-13.466a4.848 4.848 0 017.805 3.834l.041 22.084a4.848 4.848 0 002.107 3.99L96.271 56.03a4.848 4.848 0 01-1.235 8.608L74.046 71.5a4.848 4.848 0 00-3.144 3.237L64.656 95.92a4.848 4.848 0 01-8.568 1.485L43.074 79.563a4.848 4.848 0 00-4.05-1.99l-22.075.606a4.848 4.848 0 01-4.061-7.69L25.836 52.6a4.848 4.848 0 00.64-4.466L19.08 27.324a4.848 4.848 0 016.058-6.238z" fill="#fdbe2a"/><ellipse cx="67.837" cy="26.793" rx="8.452" ry="4.732" transform="rotate(-69.8 67.837 26.793)" fill="#fff8e9"/></g></g></svg>
